<svg xmlns="http://www.w3.org/2000/svg" viewBox="0 0 1920 1080" preserveAspectRatio="xMidYMid slice"><circle cx="504.5" cy="1009.3" r="1.24" fill="#ebe6dd" fill-opacity="0.321"/><circle cx="1738.7" cy="816.5" r="1.10" fill="#ebe6dd" fill-opacity="0.323"/><circle cx="1179.8" cy="561.6" r="0.91" fill="#ebe6dd" fill-opacity="0.377"/><circle cx="1577.6" cy="170.3" r="0.99" fill="#ebe6dd" fill-opacity="0.265"/><circle cx="1594.5" cy="839.1" r="1.18" fill="#ebe6dd" fill-opacity="0.376"/><circle cx="1857.8" cy="831.9" r="0.34" fill="#ebe6dd" fill-opacity="0.410"/><circle cx="1049.0" cy="53.9" r="0.78" fill="#ebe6dd" fill-opacity="0.317"/><circle cx="1718.3" cy="757.6" r="0.85" fill="#ebe6dd" fill-opacity="0.465"/><circle cx="135.2" cy="767.5" r="0.57" fill="#ebe6dd" fill-opacity="0.210"/><circle cx="1720.0" cy="243.8" r="0.87" fill="#ebe6dd" fill-opacity="0.309"/><circle cx="1388.1" cy="1079.2" r="1.32" fill="#ebe6dd" fill-opacity="0.549"/><circle cx="464.0" cy="755.3" r="0.38" fill="#ebe6dd" fill-opacity="0.276"/><circle cx="1403.4" cy="733.1" r="1.17" fill="#ebe6dd" fill-opacity="0.568"/><circle cx="1282.6" cy="355.9" r="0.78" fill="#ebe6dd" fill-opacity="0.507"/><circle cx="755.3" cy="634.8" r="0.41" fill="#ebe6dd" fill-opacity="0.481"/><circle cx="698.9" cy="253.2" r="1.23" fill="#ebe6dd" fill-opacity="0.392"/><circle cx="840.6" cy="989.3" r="1.77" fill="#ebe6dd" fill-opacity="0.614"/><circle cx="346.9" cy="161.5" r="0.73" fill="#ebe6dd" fill-opacity="0.349"/><circle cx="1034.5" cy="454.4" r="1.65" fill="#ebe6dd" fill-opacity="0.206"/><circle cx="1430.1" cy="1063.8" r="1.48" fill="#ebe6dd" fill-opacity="0.381"/><circle cx="965.2" cy="945.9" r="1.78" fill="#ebe6dd" fill-opacity="0.514"/><circle cx="786.9" cy="455.9" r="1.58" fill="#ebe6dd" fill-opacity="0.444"/><circle cx="1430.6" cy="92.4" r="1.19" fill="#ebe6dd" fill-opacity="0.225"/><circle cx="873.5" cy="163.1" r="0.82" fill="#ebe6dd" fill-opacity="0.510"/><circle cx="1514.2" cy="847.0" r="0.66" fill="#ebe6dd" fill-opacity="0.587"/><circle cx="527.5" cy="405.1" r="0.45" fill="#ebe6dd" fill-opacity="0.597"/><circle cx="1613.6" cy="810.9" r="0.88" fill="#ebe6dd" fill-opacity="0.571"/><circle cx="1454.5" cy="839.0" r="1.69" fill="#ebe6dd" fill-opacity="0.329"/><circle cx="390.8" cy="543.0" r="1.00" fill="#ebe6dd" fill-opacity="0.428"/><circle cx="612.2" cy="36.2" r="0.91" fill="#ebe6dd" fill-opacity="0.349"/><circle cx="913.3" cy="883.8" r="0.76" fill="#ebe6dd" fill-opacity="0.227"/><circle cx="677.3" cy="1060.3" r="0.94" fill="#ebe6dd" fill-opacity="0.636"/><circle cx="896.7" cy="464.0" r="1.27" fill="#ebe6dd" fill-opacity="0.181"/><circle cx="263.3" cy="37.3" r="0.71" fill="#ebe6dd" fill-opacity="0.590"/><circle cx="1214.2" cy="1062.4" r="1.45" fill="#ebe6dd" fill-opacity="0.349"/><circle cx="72.0" cy="126.1" r="0.81" fill="#ebe6dd" fill-opacity="0.639"/><circle cx="750.1" cy="965.2" r="0.32" fill="#ebe6dd" fill-opacity="0.622"/><circle cx="1017.4" cy="68.1" r="0.64" fill="#ebe6dd" fill-opacity="0.311"/><circle cx="366.7" cy="390.7" r="1.05" fill="#ebe6dd" fill-opacity="0.368"/><circle cx="590.5" cy="859.2" r="0.45" fill="#ebe6dd" fill-opacity="0.252"/><circle cx="1611.5" cy="339.9" r="0.44" fill="#ebe6dd" fill-opacity="0.170"/><circle cx="1179.4" cy="276.6" r="0.43" fill="#ebe6dd" fill-opacity="0.398"/><circle cx="299.7" cy="970.0" r="0.51" fill="#ebe6dd" fill-opacity="0.468"/><circle cx="920.1" cy="961.8" r="0.98" fill="#ebe6dd" fill-opacity="0.393"/><circle cx="428.0" cy="1043.0" r="0.68" fill="#ebe6dd" fill-opacity="0.218"/><circle cx="143.7" cy="408.2" r="1.18" fill="#ebe6dd" fill-opacity="0.616"/><circle cx="372.6" cy="275.6" r="0.81" fill="#ebe6dd" fill-opacity="0.612"/><circle cx="554.4" cy="876.2" r="0.38" fill="#ebe6dd" fill-opacity="0.584"/><circle cx="1482.0" cy="696.2" r="1.54" fill="#ebe6dd" fill-opacity="0.223"/><circle cx="1654.8" cy="214.5" r="0.31" fill="#ebe6dd" fill-opacity="0.613"/><circle cx="1843.7" cy="1.9" r="0.59" fill="#ebe6dd" fill-opacity="0.274"/><circle cx="1542.6" cy="774.6" r="1.46" fill="#ebe6dd" fill-opacity="0.386"/><circle cx="1321.4" cy="424.9" r="0.71" fill="#ebe6dd" fill-opacity="0.265"/><circle cx="1386.4" cy="269.6" r="1.72" fill="#ebe6dd" fill-opacity="0.633"/><circle cx="1060.4" cy="405.3" r="1.60" fill="#ebe6dd" fill-opacity="0.499"/><circle cx="1624.0" cy="155.5" r="0.75" fill="#ebe6dd" fill-opacity="0.638"/><circle cx="1695.0" cy="165.9" r="0.72" fill="#ebe6dd" fill-opacity="0.387"/><circle cx="299.7" cy="548.7" r="1.09" fill="#ebe6dd" fill-opacity="0.591"/><circle cx="1151.8" cy="712.9" r="0.82" fill="#ebe6dd" fill-opacity="0.332"/><circle cx="315.9" cy="424.2" r="0.36" fill="#ebe6dd" fill-opacity="0.428"/><circle cx="857.7" cy="941.1" r="1.04" fill="#ebe6dd" fill-opacity="0.624"/><circle cx="1007.2" cy="43.1" r="0.50" fill="#ebe6dd" fill-opacity="0.187"/><circle cx="965.6" cy="128.6" r="1.06" fill="#ebe6dd" fill-opacity="0.293"/><circle cx="1651.0" cy="95.6" r="0.38" fill="#ebe6dd" fill-opacity="0.266"/><circle cx="1732.3" cy="703.2" r="0.47" fill="#ebe6dd" fill-opacity="0.589"/><circle cx="797.9" cy="815.6" r="0.79" fill="#ebe6dd" fill-opacity="0.295"/><circle cx="1200.4" cy="754.0" r="0.78" fill="#ebe6dd" fill-opacity="0.324"/><circle cx="1511.2" cy="333.2" r="0.42" fill="#ebe6dd" fill-opacity="0.164"/><circle cx="56.2" cy="922.3" r="1.76" fill="#ebe6dd" fill-opacity="0.433"/><circle cx="1380.0" cy="1021.9" r="1.52" fill="#ebe6dd" fill-opacity="0.397"/><circle cx="1882.0" cy="294.9" r="1.58" fill="#ebe6dd" fill-opacity="0.324"/><circle cx="1787.2" cy="891.8" r="0.63" fill="#ebe6dd" fill-opacity="0.214"/><circle cx="1461.8" cy="567.9" r="0.64" fill="#ebe6dd" fill-opacity="0.327"/><circle cx="1794.2" cy="172.9" r="1.77" fill="#ebe6dd" fill-opacity="0.595"/><circle cx="1470.4" cy="175.2" r="0.77" fill="#ebe6dd" fill-opacity="0.238"/><circle cx="1651.0" cy="1079.8" r="0.84" fill="#ebe6dd" fill-opacity="0.284"/><circle cx="1473.5" cy="127.8" r="1.34" fill="#ebe6dd" fill-opacity="0.286"/><circle cx="383.7" cy="974.5" r="0.35" fill="#ebe6dd" fill-opacity="0.609"/><circle cx="1170.1" cy="1068.3" r="0.45" fill="#ebe6dd" fill-opacity="0.220"/><circle cx="591.8" cy="122.0" r="0.66" fill="#ebe6dd" fill-opacity="0.515"/><circle cx="1917.5" cy="910.2" r="1.49" fill="#ebe6dd" fill-opacity="0.357"/><circle cx="1802.2" cy="943.6" r="0.46" fill="#ebe6dd" fill-opacity="0.480"/><circle cx="743.6" cy="562.5" r="1.56" fill="#ebe6dd" fill-opacity="0.291"/><circle cx="933.9" cy="195.7" r="1.29" fill="#ebe6dd" fill-opacity="0.634"/><circle cx="1314.5" cy="716.9" r="0.91" fill="#ebe6dd" fill-opacity="0.515"/><circle cx="379.5" cy="13.6" r="0.64" fill="#ebe6dd" fill-opacity="0.405"/><circle cx="1517.9" cy="253.8" r="1.59" fill="#ebe6dd" fill-opacity="0.397"/><circle cx="1271.0" cy="133.7" r="1.34" fill="#ebe6dd" fill-opacity="0.467"/><circle cx="1230.0" cy="855.5" r="1.00" fill="#ebe6dd" fill-opacity="0.257"/><circle cx="1911.4" cy="398.6" r="0.86" fill="#ebe6dd" fill-opacity="0.198"/><circle cx="74.1" cy="25.9" r="0.82" fill="#ebe6dd" fill-opacity="0.461"/><circle cx="615.2" cy="487.5" r="1.26" fill="#ebe6dd" fill-opacity="0.400"/><circle cx="408.4" cy="989.8" r="1.52" fill="#ebe6dd" fill-opacity="0.284"/><circle cx="1299.5" cy="876.8" r="1.70" fill="#ebe6dd" fill-opacity="0.503"/><circle cx="130.1" cy="88.5" r="1.08" fill="#ebe6dd" fill-opacity="0.575"/><circle cx="129.8" cy="729.8" r="1.10" fill="#ebe6dd" fill-opacity="0.608"/><circle cx="596.0" cy="771.9" r="0.43" fill="#ebe6dd" fill-opacity="0.190"/><circle cx="1153.6" cy="114.5" r="0.71" fill="#ebe6dd" fill-opacity="0.398"/><circle cx="815.4" cy="406.6" r="0.55" fill="#ebe6dd" fill-opacity="0.191"/><circle cx="1858.5" cy="753.1" r="1.08" fill="#ebe6dd" fill-opacity="0.524"/><circle cx="29.5" cy="991.2" r="1.62" fill="#ebe6dd" fill-opacity="0.412"/><circle cx="1310.3" cy="736.0" r="0.64" fill="#ebe6dd" fill-opacity="0.477"/><circle cx="799.0" cy="678.3" r="1.78" fill="#ebe6dd" fill-opacity="0.488"/><circle cx="257.1" cy="885.8" r="1.16" fill="#ebe6dd" fill-opacity="0.215"/><circle cx="1607.7" cy="524.9" r="0.94" fill="#ebe6dd" fill-opacity="0.593"/><circle cx="1628.5" cy="395.3" r="1.37" fill="#ebe6dd" fill-opacity="0.432"/><circle cx="1290.4" cy="731.3" r="1.74" fill="#ebe6dd" fill-opacity="0.462"/><circle cx="464.4" cy="68.3" r="1.70" fill="#ebe6dd" fill-opacity="0.591"/><circle cx="394.9" cy="763.7" r="0.53" fill="#ebe6dd" fill-opacity="0.561"/><circle cx="693.1" cy="260.3" r="0.85" fill="#ebe6dd" fill-opacity="0.420"/><circle cx="152.1" cy="1042.4" r="0.62" fill="#ebe6dd" fill-opacity="0.460"/><circle cx="150.9" cy="544.5" r="1.65" fill="#ebe6dd" fill-opacity="0.207"/><circle cx="651.5" cy="882.1" r="0.44" fill="#ebe6dd" fill-opacity="0.258"/><circle cx="900.3" cy="1050.6" r="1.11" fill="#ebe6dd" fill-opacity="0.583"/><circle cx="271.2" cy="324.3" r="1.28" fill="#ebe6dd" fill-opacity="0.456"/><circle cx="1726.9" cy="1023.6" r="0.52" fill="#ebe6dd" fill-opacity="0.275"/><circle cx="1016.3" cy="236.9" r="1.23" fill="#ebe6dd" fill-opacity="0.577"/><circle cx="1856.8" cy="1020.9" r="1.52" fill="#ebe6dd" fill-opacity="0.334"/><circle cx="395.1" cy="205.2" r="0.38" fill="#ebe6dd" fill-opacity="0.335"/><circle cx="1655.3" cy="764.7" r="1.54" fill="#ebe6dd" fill-opacity="0.488"/><circle cx="913.4" cy="368.9" r="1.33" fill="#ebe6dd" fill-opacity="0.174"/><circle cx="1319.7" cy="786.6" r="0.93" fill="#ebe6dd" fill-opacity="0.306"/><circle cx="1460.1" cy="379.8" r="0.45" fill="#ebe6dd" fill-opacity="0.509"/><circle cx="325.4" cy="4.7" r="0.64" fill="#ebe6dd" fill-opacity="0.629"/><circle cx="794.7" cy="483.3" r="1.64" fill="#ebe6dd" fill-opacity="0.194"/><circle cx="1864.5" cy="50.2" r="1.29" fill="#ebe6dd" fill-opacity="0.496"/><circle cx="1682.8" cy="90.4" r="0.44" fill="#ebe6dd" fill-opacity="0.338"/><circle cx="108.3" cy="811.5" r="1.64" fill="#ebe6dd" fill-opacity="0.489"/><circle cx="1059.5" cy="69.5" r="0.35" fill="#ebe6dd" fill-opacity="0.453"/><circle cx="1084.2" cy="367.3" r="0.98" fill="#ebe6dd" fill-opacity="0.519"/><circle cx="538.9" cy="932.6" r="0.42" fill="#ebe6dd" fill-opacity="0.272"/><circle cx="1452.7" cy="188.2" r="0.70" fill="#ebe6dd" fill-opacity="0.563"/><circle cx="1016.0" cy="882.7" r="1.15" fill="#ebe6dd" fill-opacity="0.300"/><circle cx="1817.1" cy="1042.7" r="1.20" fill="#ebe6dd" fill-opacity="0.452"/><circle cx="1597.8" cy="941.2" r="1.80" fill="#ebe6dd" fill-opacity="0.159"/><circle cx="1308.8" cy="172.0" r="0.39" fill="#ebe6dd" fill-opacity="0.209"/><circle cx="1633.4" cy="793.5" r="0.67" fill="#ebe6dd" fill-opacity="0.366"/><circle cx="929.2" cy="362.8" r="1.58" fill="#ebe6dd" fill-opacity="0.534"/><circle cx="1353.9" cy="423.0" r="0.64" fill="#ebe6dd" fill-opacity="0.522"/><circle cx="1736.6" cy="29.8" r="0.81" fill="#ebe6dd" fill-opacity="0.602"/><circle cx="500.1" cy="807.8" r="0.57" fill="#ebe6dd" fill-opacity="0.400"/><circle cx="783.4" cy="728.2" r="0.60" fill="#ebe6dd" fill-opacity="0.572"/><circle cx="1475.5" cy="239.4" r="1.38" fill="#ebe6dd" fill-opacity="0.372"/><circle cx="698.2" cy="136.7" r="0.95" fill="#ebe6dd" fill-opacity="0.610"/><circle cx="1110.9" cy="98.6" r="0.38" fill="#ebe6dd" fill-opacity="0.399"/><circle cx="1396.4" cy="629.2" r="0.70" fill="#ebe6dd" fill-opacity="0.412"/><circle cx="43.1" cy="471.4" r="1.12" fill="#ebe6dd" fill-opacity="0.296"/><circle cx="897.2" cy="149.1" r="1.29" fill="#ebe6dd" fill-opacity="0.237"/><circle cx="675.3" cy="561.1" r="0.47" fill="#ebe6dd" fill-opacity="0.301"/><circle cx="1846.6" cy="216.3" r="1.53" fill="#ebe6dd" fill-opacity="0.384"/><circle cx="512.7" cy="379.3" r="1.60" fill="#ebe6dd" fill-opacity="0.573"/><circle cx="1335.5" cy="645.4" r="0.87" fill="#ebe6dd" fill-opacity="0.528"/><circle cx="422.4" cy="298.5" r="0.58" fill="#ebe6dd" fill-opacity="0.465"/><circle cx="257.6" cy="710.8" r="1.67" fill="#ebe6dd" fill-opacity="0.487"/><circle cx="692.0" cy="418.6" r="1.27" fill="#ebe6dd" fill-opacity="0.240"/><circle cx="1129.0" cy="827.2" r="1.04" fill="#ebe6dd" fill-opacity="0.471"/><circle cx="1.4" cy="701.5" r="0.73" fill="#ebe6dd" fill-opacity="0.269"/><circle cx="857.5" cy="1019.8" r="0.90" fill="#ebe6dd" fill-opacity="0.170"/><circle cx="823.0" cy="786.6" r="1.62" fill="#ebe6dd" fill-opacity="0.505"/><circle cx="1836.2" cy="212.7" r="1.79" fill="#ebe6dd" fill-opacity="0.601"/><circle cx="1201.3" cy="77.4" r="1.30" fill="#ebe6dd" fill-opacity="0.565"/><circle cx="1514.4" cy="190.3" r="1.52" fill="#ebe6dd" fill-opacity="0.291"/><circle cx="1738.9" cy="67.3" r="1.54" fill="#ebe6dd" fill-opacity="0.246"/><circle cx="1116.4" cy="704.6" r="0.64" fill="#ebe6dd" fill-opacity="0.474"/><circle cx="879.4" cy="743.4" r="1.30" fill="#ebe6dd" fill-opacity="0.583"/><circle cx="656.6" cy="29.0" r="1.45" fill="#ebe6dd" fill-opacity="0.611"/><circle cx="1535.7" cy="568.0" r="1.47" fill="#ebe6dd" fill-opacity="0.251"/><circle cx="597.0" cy="314.2" r="1.60" fill="#ebe6dd" fill-opacity="0.153"/><circle cx="1039.2" cy="943.7" r="0.72" fill="#ebe6dd" fill-opacity="0.461"/><circle cx="958.1" cy="201.4" r="0.44" fill="#ebe6dd" fill-opacity="0.524"/><circle cx="667.0" cy="1008.0" r="1.03" fill="#ebe6dd" fill-opacity="0.231"/><circle cx="1421.3" cy="1071.3" r="0.47" fill="#ebe6dd" fill-opacity="0.621"/><circle cx="298.0" cy="703.2" r="1.62" fill="#ebe6dd" fill-opacity="0.169"/><circle cx="1356.1" cy="204.7" r="0.70" fill="#ebe6dd" fill-opacity="0.562"/><circle cx="228.8" cy="81.9" r="0.99" fill="#ebe6dd" fill-opacity="0.554"/><circle cx="779.8" cy="965.9" r="1.28" fill="#ebe6dd" fill-opacity="0.548"/><circle cx="648.7" cy="123.7" r="0.96" fill="#ebe6dd" fill-opacity="0.275"/><circle cx="1761.2" cy="794.0" r="1.07" fill="#ebe6dd" fill-opacity="0.161"/><circle cx="1424.0" cy="907.6" r="1.52" fill="#ebe6dd" fill-opacity="0.260"/><circle cx="1607.3" cy="1017.8" r="1.41" fill="#ebe6dd" fill-opacity="0.196"/><circle cx="1283.4" cy="679.6" r="0.57" fill="#ebe6dd" fill-opacity="0.352"/><circle cx="580.6" cy="745.1" r="1.41" fill="#ebe6dd" fill-opacity="0.397"/><circle cx="1322.0" cy="130.2" r="0.82" fill="#ebe6dd" fill-opacity="0.286"/><circle cx="153.5" cy="468.2" r="1.10" fill="#ebe6dd" fill-opacity="0.278"/><circle cx="705.2" cy="538.2" r="0.82" fill="#ebe6dd" fill-opacity="0.232"/><circle cx="323.1" cy="184.1" r="1.57" fill="#ebe6dd" fill-opacity="0.228"/><circle cx="1104.5" cy="555.2" r="1.06" fill="#ebe6dd" fill-opacity="0.445"/><circle cx="567.7" cy="507.5" r="1.63" fill="#ebe6dd" fill-opacity="0.540"/><circle cx="773.8" cy="1051.0" r="1.18" fill="#ebe6dd" fill-opacity="0.287"/><circle cx="1849.8" cy="817.7" r="0.82" fill="#ebe6dd" fill-opacity="0.601"/><circle cx="3.7" cy="800.6" r="0.36" fill="#ebe6dd" fill-opacity="0.456"/><circle cx="705.0" cy="643.6" r="0.57" fill="#ebe6dd" fill-opacity="0.541"/><circle cx="1196.2" cy="715.0" r="1.33" fill="#ebe6dd" fill-opacity="0.540"/><circle cx="628.7" cy="364.7" r="1.35" fill="#ebe6dd" fill-opacity="0.395"/><circle cx="1064.4" cy="239.8" r="1.06" fill="#ebe6dd" fill-opacity="0.279"/><circle cx="492.4" cy="249.5" r="1.41" fill="#ebe6dd" fill-opacity="0.585"/><circle cx="1858.8" cy="739.4" r="1.54" fill="#ebe6dd" fill-opacity="0.338"/><circle cx="705.8" cy="687.4" r="0.94" fill="#ebe6dd" fill-opacity="0.639"/><circle cx="362.1" cy="1048.1" r="1.78" fill="#ebe6dd" fill-opacity="0.615"/><circle cx="136.3" cy="953.7" r="0.41" fill="#ebe6dd" fill-opacity="0.545"/><circle cx="187.4" cy="703.5" r="1.78" fill="#ebe6dd" fill-opacity="0.206"/><circle cx="1527.7" cy="210.0" r="0.64" fill="#ebe6dd" fill-opacity="0.625"/><circle cx="93.6" cy="934.7" r="0.94" fill="#ebe6dd" fill-opacity="0.229"/><circle cx="576.6" cy="883.1" r="1.30" fill="#ebe6dd" fill-opacity="0.155"/><circle cx="40.6" cy="350.6" r="0.34" fill="#ebe6dd" fill-opacity="0.416"/><circle cx="1068.5" cy="303.4" r="1.50" fill="#ebe6dd" fill-opacity="0.213"/><circle cx="1622.1" cy="562.4" r="0.65" fill="#ebe6dd" fill-opacity="0.179"/><circle cx="1347.5" cy="25.5" r="0.73" fill="#ebe6dd" fill-opacity="0.364"/><circle cx="1753.7" cy="573.7" r="0.79" fill="#ebe6dd" fill-opacity="0.316"/><circle cx="227.7" cy="237.0" r="1.71" fill="#ebe6dd" fill-opacity="0.347"/><circle cx="1773.3" cy="132.6" r="1.61" fill="#ebe6dd" fill-opacity="0.556"/><circle cx="1396.6" cy="987.3" r="0.44" fill="#ebe6dd" fill-opacity="0.545"/><circle cx="405.4" cy="1038.5" r="1.19" fill="#ebe6dd" fill-opacity="0.367"/><circle cx="1074.9" cy="52.6" r="0.71" fill="#ebe6dd" fill-opacity="0.545"/><circle cx="1909.5" cy="639.6" r="1.30" fill="#ebe6dd" fill-opacity="0.286"/><circle cx="1407.6" cy="1046.0" r="0.60" fill="#ebe6dd" fill-opacity="0.613"/><circle cx="501.1" cy="659.8" r="1.65" fill="#ebe6dd" fill-opacity="0.166"/><circle cx="499.6" cy="957.9" r="1.17" fill="#ebe6dd" fill-opacity="0.240"/><circle cx="1418.3" cy="401.5" r="1.21" fill="#ebe6dd" fill-opacity="0.431"/><circle cx="642.8" cy="473.0" r="0.54" fill="#ebe6dd" fill-opacity="0.279"/><circle cx="182.2" cy="795.5" r="0.40" fill="#ebe6dd" fill-opacity="0.553"/><circle cx="112.6" cy="541.9" r="1.02" fill="#ebe6dd" fill-opacity="0.443"/><circle cx="1512.9" cy="1068.6" r="1.56" fill="#ebe6dd" fill-opacity="0.416"/><circle cx="189.5" cy="614.9" r="1.35" fill="#ebe6dd" fill-opacity="0.602"/><circle cx="813.5" cy="895.7" r="0.68" fill="#ebe6dd" fill-opacity="0.152"/><circle cx="1096.0" cy="1033.9" r="1.32" fill="#ebe6dd" fill-opacity="0.453"/><circle cx="425.3" cy="607.7" r="0.68" fill="#ebe6dd" fill-opacity="0.333"/><circle cx="144.1" cy="53.4" r="0.85" fill="#ebe6dd" fill-opacity="0.385"/><circle cx="607.2" cy="609.6" r="1.51" fill="#ebe6dd" fill-opacity="0.534"/><circle cx="377.1" cy="731.1" r="0.84" fill="#ebe6dd" fill-opacity="0.432"/><circle cx="1387.0" cy="487.8" r="0.47" fill="#ebe6dd" fill-opacity="0.488"/><circle cx="499.4" cy="706.7" r="0.50" fill="#ebe6dd" fill-opacity="0.262"/><circle cx="1109.6" cy="920.9" r="0.94" fill="#ebe6dd" fill-opacity="0.176"/><circle cx="700.1" cy="183.9" r="0.60" fill="#ebe6dd" fill-opacity="0.375"/><circle cx="1284.3" cy="280.5" r="1.19" fill="#ebe6dd" fill-opacity="0.599"/><circle cx="830.6" cy="572.8" r="0.93" fill="#ebe6dd" fill-opacity="0.290"/><circle cx="641.0" cy="735.1" r="1.52" fill="#ebe6dd" fill-opacity="0.388"/><circle cx="1530.0" cy="664.0" r="1.61" fill="#ebe6dd" fill-opacity="0.287"/><circle cx="1065.0" cy="915.4" r="1.32" fill="#ebe6dd" fill-opacity="0.543"/><circle cx="1515.5" cy="918.8" r="1.00" fill="#ebe6dd" fill-opacity="0.469"/><circle cx="1135.3" cy="300.0" r="1.66" fill="#ebe6dd" fill-opacity="0.156"/><circle cx="1170.6" cy="610.6" r="1.51" fill="#ebe6dd" fill-opacity="0.420"/><circle cx="581.1" cy="1036.1" r="0.78" fill="#ebe6dd" fill-opacity="0.478"/><circle cx="1206.5" cy="21.8" r="1.01" fill="#ebe6dd" fill-opacity="0.306"/><circle cx="448.4" cy="922.9" r="1.52" fill="#ebe6dd" fill-opacity="0.365"/><circle cx="751.3" cy="74.4" r="0.55" fill="#ebe6dd" fill-opacity="0.229"/><circle cx="306.5" cy="773.7" r="0.80" fill="#ebe6dd" fill-opacity="0.540"/><circle cx="949.1" cy="749.8" r="1.59" fill="#ebe6dd" fill-opacity="0.360"/><circle cx="1181.8" cy="248.7" r="1.50" fill="#ebe6dd" fill-opacity="0.307"/><circle cx="159.5" cy="846.0" r="1.73" fill="#ebe6dd" fill-opacity="0.628"/><circle cx="201.9" cy="665.0" r="1.75" fill="#ebe6dd" fill-opacity="0.640"/><circle cx="1186.9" cy="785.7" r="0.99" fill="#ebe6dd" fill-opacity="0.333"/><circle cx="1414.4" cy="1067.0" r="0.94" fill="#ebe6dd" fill-opacity="0.225"/><circle cx="1682.3" cy="368.9" r="0.86" fill="#ebe6dd" fill-opacity="0.174"/><circle cx="1741.2" cy="332.2" r="1.01" fill="#ebe6dd" fill-opacity="0.186"/><circle cx="863.4" cy="304.9" r="0.54" fill="#ebe6dd" fill-opacity="0.334"/><circle cx="160.3" cy="854.7" r="1.04" fill="#ebe6dd" fill-opacity="0.189"/><circle cx="7.8" cy="442.0" r="0.71" fill="#ebe6dd" fill-opacity="0.221"/><circle cx="1517.3" cy="115.3" r="0.73" fill="#ebe6dd" fill-opacity="0.431"/><circle cx="438.1" cy="463.4" r="0.83" fill="#ebe6dd" fill-opacity="0.427"/><circle cx="1242.3" cy="389.9" r="0.99" fill="#ebe6dd" fill-opacity="0.437"/><circle cx="1340.2" cy="680.2" r="0.97" fill="#ebe6dd" fill-opacity="0.555"/><circle cx="860.2" cy="744.6" r="1.31" fill="#ebe6dd" fill-opacity="0.264"/><circle cx="331.1" cy="191.5" r="0.62" fill="#ebe6dd" fill-opacity="0.392"/><circle cx="450.8" cy="1051.8" r="1.31" fill="#ebe6dd" fill-opacity="0.496"/><circle cx="168.2" cy="759.3" r="1.21" fill="#ebe6dd" fill-opacity="0.635"/><circle cx="198.5" cy="86.3" r="0.61" fill="#ebe6dd" fill-opacity="0.587"/><circle cx="360.9" cy="53.7" r="1.60" fill="#ebe6dd" fill-opacity="0.215"/><circle cx="195.6" cy="532.6" r="0.44" fill="#ebe6dd" fill-opacity="0.487"/><circle cx="497.5" cy="953.5" r="0.35" fill="#ebe6dd" fill-opacity="0.188"/><circle cx="1644.3" cy="714.7" r="0.83" fill="#ebe6dd" fill-opacity="0.270"/><circle cx="380.1" cy="380.3" r="1.18" fill="#ebe6dd" fill-opacity="0.415"/><circle cx="770.0" cy="289.1" r="1.46" fill="#ebe6dd" fill-opacity="0.409"/><circle cx="991.2" cy="301.8" r="1.07" fill="#ebe6dd" fill-opacity="0.625"/><circle cx="1818.8" cy="444.9" r="1.55" fill="#ebe6dd" fill-opacity="0.410"/><circle cx="1617.0" cy="455.9" r="1.75" fill="#ebe6dd" fill-opacity="0.209"/><circle cx="1260.3" cy="76.1" r="1.50" fill="#ebe6dd" fill-opacity="0.388"/><circle cx="52.8" cy="475.4" r="0.47" fill="#ebe6dd" fill-opacity="0.473"/><circle cx="747.2" cy="18.3" r="1.47" fill="#ebe6dd" fill-opacity="0.267"/><circle cx="92.8" cy="425.1" r="0.36" fill="#ebe6dd" fill-opacity="0.485"/><circle cx="1396.3" cy="938.5" r="1.09" fill="#ebe6dd" fill-opacity="0.550"/><circle cx="1583.7" cy="1064.4" r="1.06" fill="#ebe6dd" fill-opacity="0.374"/><circle cx="471.1" cy="617.7" r="1.17" fill="#ebe6dd" fill-opacity="0.383"/><circle cx="1782.6" cy="276.8" r="0.42" fill="#ebe6dd" fill-opacity="0.440"/><circle cx="796.1" cy="676.8" r="0.96" fill="#ebe6dd" fill-opacity="0.417"/><circle cx="1559.5" cy="497.1" r="1.25" fill="#ebe6dd" fill-opacity="0.548"/><circle cx="15.0" cy="569.2" r="0.33" fill="#ebe6dd" fill-opacity="0.519"/><circle cx="335.6" cy="193.9" r="0.63" fill="#ebe6dd" fill-opacity="0.299"/><circle cx="936.2" cy="215.7" r="0.47" fill="#ebe6dd" fill-opacity="0.570"/><circle cx="1192.9" cy="911.5" r="1.47" fill="#ebe6dd" fill-opacity="0.579"/><circle cx="1630.7" cy="613.2" r="0.89" fill="#ebe6dd" fill-opacity="0.466"/><circle cx="130.4" cy="278.4" r="1.54" fill="#ebe6dd" fill-opacity="0.602"/><circle cx="68.8" cy="1022.2" r="1.46" fill="#ebe6dd" fill-opacity="0.429"/><circle cx="1198.5" cy="984.7" r="1.38" fill="#ebe6dd" fill-opacity="0.477"/><circle cx="1515.2" cy="623.6" r="0.54" fill="#ebe6dd" fill-opacity="0.504"/><circle cx="877.2" cy="1022.9" r="1.18" fill="#ebe6dd" fill-opacity="0.499"/><circle cx="45.5" cy="120.0" r="1.32" fill="#ebe6dd" fill-opacity="0.250"/><circle cx="1277.8" cy="314.5" r="0.47" fill="#ebe6dd" fill-opacity="0.211"/><circle cx="1420.8" cy="206.4" r="0.97" fill="#ebe6dd" fill-opacity="0.435"/><circle cx="1293.7" cy="121.4" r="0.88" fill="#ebe6dd" fill-opacity="0.303"/><circle cx="551.8" cy="274.4" r="1.30" fill="#ebe6dd" fill-opacity="0.355"/><circle cx="315.0" cy="57.1" r="1.61" fill="#ebe6dd" fill-opacity="0.254"/><circle cx="151.6" cy="978.3" r="1.37" fill="#ebe6dd" fill-opacity="0.206"/><circle cx="283.0" cy="345.5" r="1.53" fill="#ebe6dd" fill-opacity="0.364"/><circle cx="311.0" cy="2.4" r="0.94" fill="#ebe6dd" fill-opacity="0.504"/><circle cx="1172.8" cy="1040.1" r="1.14" fill="#ebe6dd" fill-opacity="0.505"/><circle cx="874.6" cy="518.1" r="1.39" fill="#ebe6dd" fill-opacity="0.582"/><circle cx="1377.1" cy="531.9" r="1.13" fill="#ebe6dd" fill-opacity="0.328"/><circle cx="853.2" cy="380.3" r="0.91" fill="#ebe6dd" fill-opacity="0.602"/><circle cx="1168.6" cy="233.3" r="0.36" fill="#ebe6dd" fill-opacity="0.622"/><circle cx="1915.5" cy="941.0" r="0.68" fill="#ebe6dd" fill-opacity="0.205"/><circle cx="1187.7" cy="420.3" r="1.04" fill="#ebe6dd" fill-opacity="0.637"/><circle cx="1744.5" cy="252.1" r="1.75" fill="#ebe6dd" fill-opacity="0.374"/><circle cx="719.0" cy="393.5" r="0.59" fill="#ebe6dd" fill-opacity="0.408"/><circle cx="1708.3" cy="821.9" r="1.20" fill="#ebe6dd" fill-opacity="0.406"/><circle cx="1592.9" cy="169.1" r="1.02" fill="#ebe6dd" fill-opacity="0.237"/><circle cx="1789.8" cy="820.0" r="0.75" fill="#ebe6dd" fill-opacity="0.603"/><circle cx="138.7" cy="506.4" r="0.75" fill="#ebe6dd" fill-opacity="0.543"/><circle cx="334.5" cy="919.6" r="1.56" fill="#ebe6dd" fill-opacity="0.555"/><circle cx="1142.0" cy="818.9" r="0.56" fill="#ebe6dd" fill-opacity="0.368"/><circle cx="1110.5" cy="406.9" r="0.87" fill="#ebe6dd" fill-opacity="0.347"/><circle cx="1699.7" cy="266.3" r="0.94" fill="#ebe6dd" fill-opacity="0.568"/><circle cx="1629.5" cy="308.4" r="0.75" fill="#ebe6dd" fill-opacity="0.639"/><circle cx="1373.6" cy="56.9" r="1.63" fill="#ebe6dd" fill-opacity="0.642"/><circle cx="63.8" cy="527.5" r="1.68" fill="#ebe6dd" fill-opacity="0.405"/><circle cx="673.7" cy="679.4" r="1.79" fill="#ebe6dd" fill-opacity="0.571"/><circle cx="753.1" cy="518.8" r="1.71" fill="#ebe6dd" fill-opacity="0.645"/><circle cx="1082.3" cy="419.8" r="1.47" fill="#ebe6dd" fill-opacity="0.515"/><circle cx="1076.8" cy="268.8" r="1.22" fill="#ebe6dd" fill-opacity="0.285"/><circle cx="711.1" cy="109.2" r="1.03" fill="#ebe6dd" fill-opacity="0.280"/><circle cx="675.4" cy="974.2" r="0.58" fill="#ebe6dd" fill-opacity="0.368"/><circle cx="284.0" cy="970.4" r="1.22" fill="#ebe6dd" fill-opacity="0.592"/><circle cx="1915.7" cy="616.9" r="0.56" fill="#ebe6dd" fill-opacity="0.499"/><circle cx="371.5" cy="705.1" r="0.47" fill="#ebe6dd" fill-opacity="0.334"/><circle cx="1696.8" cy="255.3" r="0.89" fill="#ebe6dd" fill-opacity="0.202"/><circle cx="175.3" cy="812.7" r="1.73" fill="#ebe6dd" fill-opacity="0.292"/><circle cx="347.9" cy="164.1" r="0.92" fill="#ebe6dd" fill-opacity="0.590"/><circle cx="846.4" cy="787.2" r="0.44" fill="#ebe6dd" fill-opacity="0.485"/><circle cx="1053.9" cy="463.5" r="0.57" fill="#ebe6dd" fill-opacity="0.641"/><circle cx="1139.2" cy="198.1" r="1.39" fill="#ebe6dd" fill-opacity="0.429"/><circle cx="1573.7" cy="546.3" r="0.43" fill="#ebe6dd" fill-opacity="0.613"/><circle cx="1828.5" cy="855.3" r="1.55" fill="#ebe6dd" fill-opacity="0.467"/><circle cx="775.4" cy="62.7" r="1.01" fill="#ebe6dd" fill-opacity="0.251"/><circle cx="880.3" cy="978.3" r="1.69" fill="#ebe6dd" fill-opacity="0.649"/><circle cx="368.0" cy="563.9" r="0.36" fill="#ebe6dd" fill-opacity="0.174"/><circle cx="1333.7" cy="150.7" r="1.07" fill="#ebe6dd" fill-opacity="0.559"/><circle cx="1046.6" cy="77.4" r="1.32" fill="#ebe6dd" fill-opacity="0.475"/><circle cx="359.9" cy="522.6" r="0.74" fill="#ebe6dd" fill-opacity="0.324"/><circle cx="934.9" cy="266.6" r="0.90" fill="#ebe6dd" fill-opacity="0.335"/><circle cx="1307.8" cy="608.4" r="1.07" fill="#ebe6dd" fill-opacity="0.372"/><circle cx="1787.4" cy="360.1" r="0.30" fill="#ebe6dd" fill-opacity="0.161"/><circle cx="1003.1" cy="997.0" r="1.50" fill="#ebe6dd" fill-opacity="0.597"/><circle cx="9.4" cy="481.2" r="1.25" fill="#ebe6dd" fill-opacity="0.581"/><circle cx="1568.6" cy="419.2" r="1.19" fill="#ebe6dd" fill-opacity="0.580"/><circle cx="1186.9" cy="892.9" r="0.52" fill="#ebe6dd" fill-opacity="0.414"/><circle cx="987.1" cy="355.5" r="0.54" fill="#ebe6dd" fill-opacity="0.211"/><circle cx="489.9" cy="776.2" r="1.61" fill="#ebe6dd" fill-opacity="0.166"/><circle cx="71.4" cy="16.1" r="0.78" fill="#ebe6dd" fill-opacity="0.205"/><circle cx="783.8" cy="236.7" r="1.62" fill="#ebe6dd" fill-opacity="0.395"/><circle cx="967.5" cy="312.1" r="0.36" fill="#ebe6dd" fill-opacity="0.552"/><circle cx="1652.8" cy="771.1" r="0.51" fill="#ebe6dd" fill-opacity="0.448"/><circle cx="692.6" cy="505.1" r="0.47" fill="#ebe6dd" fill-opacity="0.623"/><circle cx="1042.0" cy="314.7" r="1.48" fill="#ebe6dd" fill-opacity="0.179"/><circle cx="1317.3" cy="1035.5" r="0.67" fill="#ebe6dd" fill-opacity="0.219"/><circle cx="313.9" cy="25.9" r="0.53" fill="#ebe6dd" fill-opacity="0.294"/><circle cx="1112.5" cy="1016.4" r="1.06" fill="#ebe6dd" fill-opacity="0.297"/><circle cx="871.1" cy="608.6" r="0.32" fill="#ebe6dd" fill-opacity="0.476"/><circle cx="417.0" cy="321.9" r="0.72" fill="#ebe6dd" fill-opacity="0.436"/><circle cx="321.2" cy="150.5" r="1.05" fill="#ebe6dd" fill-opacity="0.424"/><circle cx="881.3" cy="931.8" r="1.11" fill="#ebe6dd" fill-opacity="0.333"/><circle cx="920.0" cy="650.8" r="1.72" fill="#ebe6dd" fill-opacity="0.205"/><circle cx="477.1" cy="476.0" r="1.73" fill="#ebe6dd" fill-opacity="0.383"/><circle cx="1874.4" cy="419.6" r="1.17" fill="#ebe6dd" fill-opacity="0.381"/><circle cx="1682.5" cy="1011.3" r="1.49" fill="#ebe6dd" fill-opacity="0.426"/><circle cx="1637.2" cy="738.1" r="1.62" fill="#ebe6dd" fill-opacity="0.448"/><circle cx="1775.3" cy="907.4" r="0.50" fill="#ebe6dd" fill-opacity="0.258"/><circle cx="296.1" cy="547.0" r="0.67" fill="#ebe6dd" fill-opacity="0.511"/><circle cx="342.9" cy="13.5" r="0.75" fill="#ebe6dd" fill-opacity="0.319"/><circle cx="158.9" cy="625.0" r="1.06" fill="#ebe6dd" fill-opacity="0.600"/><circle cx="611.7" cy="1075.1" r="0.57" fill="#ebe6dd" fill-opacity="0.390"/><circle cx="364.5" cy="534.5" r="0.79" fill="#ebe6dd" fill-opacity="0.434"/><circle cx="536.2" cy="201.9" r="1.36" fill="#ebe6dd" fill-opacity="0.300"/><circle cx="939.7" cy="220.5" r="0.94" fill="#ebe6dd" fill-opacity="0.619"/><circle cx="386.2" cy="230.7" r="1.42" fill="#ebe6dd" fill-opacity="0.167"/><circle cx="1350.1" cy="770.7" r="1.72" fill="#ebe6dd" fill-opacity="0.434"/><circle cx="1875.4" cy="30.6" r="0.87" fill="#ebe6dd" fill-opacity="0.602"/><circle cx="1896.8" cy="671.7" r="1.24" fill="#ebe6dd" fill-opacity="0.566"/><circle cx="735.1" cy="25.7" r="1.69" fill="#ebe6dd" fill-opacity="0.171"/><circle cx="428.0" cy="35.7" r="0.64" fill="#ebe6dd" fill-opacity="0.462"/><circle cx="564.3" cy="425.0" r="1.73" fill="#ebe6dd" fill-opacity="0.413"/><circle cx="63.8" cy="317.4" r="0.84" fill="#ebe6dd" fill-opacity="0.561"/><circle cx="66.7" cy="94.4" r="0.52" fill="#ebe6dd" fill-opacity="0.474"/><circle cx="1224.7" cy="518.7" r="0.62" fill="#ebe6dd" fill-opacity="0.587"/><circle cx="1433.5" cy="352.8" r="0.51" fill="#ebe6dd" fill-opacity="0.598"/><circle cx="1464.4" cy="401.0" r="1.67" fill="#ebe6dd" fill-opacity="0.407"/><circle cx="1617.9" cy="861.7" r="0.85" fill="#ebe6dd" fill-opacity="0.268"/><circle cx="729.1" cy="516.1" r="1.70" fill="#ebe6dd" fill-opacity="0.398"/><circle cx="299.3" cy="569.4" r="0.32" fill="#ebe6dd" fill-opacity="0.546"/><circle cx="437.2" cy="401.3" r="1.08" fill="#ebe6dd" fill-opacity="0.438"/><circle cx="122.1" cy="273.3" r="0.31" fill="#ebe6dd" fill-opacity="0.591"/><circle cx="664.8" cy="737.3" r="0.53" fill="#ebe6dd" fill-opacity="0.365"/><circle cx="1491.2" cy="427.9" r="0.33" fill="#ebe6dd" fill-opacity="0.331"/><circle cx="1063.2" cy="845.9" r="0.38" fill="#ebe6dd" fill-opacity="0.536"/><circle cx="1728.2" cy="338.1" r="1.31" fill="#ebe6dd" fill-opacity="0.452"/><circle cx="329.8" cy="482.6" r="1.68" fill="#ebe6dd" fill-opacity="0.172"/><circle cx="1268.4" cy="670.8" r="1.11" fill="#ebe6dd" fill-opacity="0.356"/><circle cx="151.3" cy="573.1" r="0.71" fill="#ebe6dd" fill-opacity="0.225"/><circle cx="1314.9" cy="478.0" r="0.66" fill="#ebe6dd" fill-opacity="0.385"/><circle cx="257.8" cy="903.5" r="1.25" fill="#ebe6dd" fill-opacity="0.636"/><circle cx="365.0" cy="540.8" r="0.75" fill="#ebe6dd" fill-opacity="0.194"/><circle cx="722.6" cy="531.1" r="0.61" fill="#ebe6dd" fill-opacity="0.237"/><circle cx="968.1" cy="723.7" r="1.45" fill="#ebe6dd" fill-opacity="0.531"/><circle cx="743.3" cy="703.3" r="1.77" fill="#ebe6dd" fill-opacity="0.454"/><circle cx="326.5" cy="428.1" r="1.02" fill="#ebe6dd" fill-opacity="0.171"/><circle cx="808.0" cy="950.7" r="1.16" fill="#ebe6dd" fill-opacity="0.316"/><circle cx="212.8" cy="957.9" r="1.28" fill="#ebe6dd" fill-opacity="0.535"/><circle cx="636.4" cy="213.5" r="1.16" fill="#ebe6dd" fill-opacity="0.206"/><circle cx="786.9" cy="699.6" r="1.01" fill="#ebe6dd" fill-opacity="0.486"/><circle cx="881.2" cy="393.4" r="0.32" fill="#ebe6dd" fill-opacity="0.583"/><circle cx="1073.9" cy="653.2" r="1.35" fill="#ebe6dd" fill-opacity="0.514"/><circle cx="1135.1" cy="938.2" r="0.91" fill="#ebe6dd" fill-opacity="0.514"/><circle cx="888.1" cy="134.6" r="0.59" fill="#ebe6dd" fill-opacity="0.258"/><circle cx="464.6" cy="647.5" r="1.77" fill="#ebe6dd" fill-opacity="0.250"/><circle cx="1731.4" cy="554.2" r="0.57" fill="#ebe6dd" fill-opacity="0.352"/><circle cx="1109.6" cy="287.0" r="1.61" fill="#ebe6dd" fill-opacity="0.454"/><circle cx="1255.4" cy="256.7" r="1.65" fill="#ebe6dd" fill-opacity="0.219"/><circle cx="287.7" cy="309.0" r="1.29" fill="#ebe6dd" fill-opacity="0.515"/><circle cx="237.2" cy="319.0" r="1.79" fill="#ebe6dd" fill-opacity="0.324"/><circle cx="1010.0" cy="306.7" r="1.73" fill="#ebe6dd" fill-opacity="0.639"/><circle cx="412.5" cy="823.6" r="0.93" fill="#ebe6dd" fill-opacity="0.261"/><circle cx="1852.7" cy="113.0" r="0.67" fill="#ebe6dd" fill-opacity="0.451"/><circle cx="439.7" cy="608.4" r="1.59" fill="#ebe6dd" fill-opacity="0.183"/><circle cx="1122.7" cy="935.9" r="1.50" fill="#ebe6dd" fill-opacity="0.324"/><circle cx="872.3" cy="1003.9" r="0.34" fill="#ebe6dd" fill-opacity="0.399"/><circle cx="1463.3" cy="661.7" r="1.32" fill="#ebe6dd" fill-opacity="0.220"/><circle cx="1193.0" cy="930.6" r="1.02" fill="#ebe6dd" fill-opacity="0.280"/><circle cx="1787.3" cy="931.1" r="1.38" fill="#ebe6dd" fill-opacity="0.202"/><circle cx="1196.8" cy="13.4" r="1.49" fill="#ebe6dd" fill-opacity="0.258"/><circle cx="776.9" cy="128.6" r="0.51" fill="#ebe6dd" fill-opacity="0.319"/><circle cx="449.3" cy="962.6" r="0.56" fill="#ebe6dd" fill-opacity="0.270"/><circle cx="902.4" cy="217.9" r="0.43" fill="#ebe6dd" fill-opacity="0.288"/><circle cx="1330.4" cy="918.7" r="1.51" fill="#ebe6dd" fill-opacity="0.453"/><circle cx="640.2" cy="665.3" r="0.34" fill="#ebe6dd" fill-opacity="0.521"/><circle cx="1456.8" cy="919.8" r="0.88" fill="#ebe6dd" fill-opacity="0.353"/><circle cx="1669.4" cy="523.1" r="1.44" fill="#ebe6dd" fill-opacity="0.622"/><circle cx="867.4" cy="854.2" r="1.51" fill="#ebe6dd" fill-opacity="0.552"/><circle cx="1466.5" cy="366.9" r="0.41" fill="#ebe6dd" fill-opacity="0.483"/><circle cx="1405.8" cy="804.9" r="1.14" fill="#ebe6dd" fill-opacity="0.152"/><circle cx="411.7" cy="605.9" r="0.53" fill="#ebe6dd" fill-opacity="0.621"/><circle cx="1181.7" cy="785.2" r="1.60" fill="#ebe6dd" fill-opacity="0.554"/><circle cx="1611.2" cy="104.2" r="0.49" fill="#ebe6dd" fill-opacity="0.470"/><circle cx="513.3" cy="423.0" r="0.93" fill="#ebe6dd" fill-opacity="0.639"/><circle cx="1135.4" cy="269.4" r="0.83" fill="#ebe6dd" fill-opacity="0.573"/><circle cx="403.6" cy="312.3" r="0.60" fill="#ebe6dd" fill-opacity="0.416"/><circle cx="861.6" cy="825.9" r="0.42" fill="#ebe6dd" fill-opacity="0.540"/><circle cx="952.4" cy="42.2" r="1.69" fill="#ebe6dd" fill-opacity="0.317"/><circle cx="428.7" cy="432.0" r="0.32" fill="#ebe6dd" fill-opacity="0.492"/><circle cx="1095.8" cy="244.2" r="0.75" fill="#ebe6dd" fill-opacity="0.586"/><circle cx="871.3" cy="986.6" r="0.37" fill="#ebe6dd" fill-opacity="0.300"/><circle cx="1807.8" cy="536.6" r="0.54" fill="#ebe6dd" fill-opacity="0.616"/><circle cx="1078.8" cy="364.0" r="1.76" fill="#ebe6dd" fill-opacity="0.279"/><circle cx="1157.0" cy="92.3" r="1.23" fill="#ebe6dd" fill-opacity="0.355"/><circle cx="382.2" cy="359.2" r="0.87" fill="#ebe6dd" fill-opacity="0.550"/><circle cx="192.7" cy="112.4" r="1.03" fill="#ebe6dd" fill-opacity="0.413"/><circle cx="688.5" cy="440.0" r="0.87" fill="#ebe6dd" fill-opacity="0.578"/><circle cx="477.8" cy="382.5" r="0.46" fill="#ebe6dd" fill-opacity="0.638"/><circle cx="275.6" cy="899.4" r="1.46" fill="#ebe6dd" fill-opacity="0.440"/><circle cx="765.3" cy="804.2" r="1.12" fill="#ebe6dd" fill-opacity="0.395"/><circle cx="570.6" cy="666.0" r="0.69" fill="#ebe6dd" fill-opacity="0.516"/><circle cx="286.5" cy="85.2" r="1.76" fill="#ebe6dd" fill-opacity="0.166"/><circle cx="234.2" cy="516.1" r="1.11" fill="#ebe6dd" fill-opacity="0.351"/><circle cx="654.8" cy="72.7" r="1.21" fill="#ebe6dd" fill-opacity="0.454"/><circle cx="850.9" cy="880.5" r="0.49" fill="#ebe6dd" fill-opacity="0.382"/><circle cx="436.9" cy="351.1" r="0.87" fill="#ebe6dd" fill-opacity="0.190"/><circle cx="1544.4" cy="165.8" r="1.31" fill="#ebe6dd" fill-opacity="0.251"/><circle cx="998.9" cy="1025.1" r="0.57" fill="#ebe6dd" fill-opacity="0.236"/><circle cx="1604.7" cy="44.5" r="1.26" fill="#ebe6dd" fill-opacity="0.154"/><circle cx="1346.6" cy="71.4" r="1.48" fill="#ebe6dd" fill-opacity="0.220"/><circle cx="445.0" cy="838.6" r="1.54" fill="#ebe6dd" fill-opacity="0.252"/><circle cx="235.7" cy="575.8" r="1.18" fill="#ebe6dd" fill-opacity="0.305"/><circle cx="1881.7" cy="330.9" r="1.77" fill="#ebe6dd" fill-opacity="0.457"/><circle cx="237.1" cy="295.6" r="1.43" fill="#ebe6dd" fill-opacity="0.368"/><circle cx="1464.1" cy="176.9" r="0.88" fill="#ebe6dd" fill-opacity="0.155"/><circle cx="475.6" cy="192.2" r="0.78" fill="#ebe6dd" fill-opacity="0.278"/><circle cx="393.9" cy="387.6" r="1.21" fill="#ebe6dd" fill-opacity="0.440"/><circle cx="1411.5" cy="331.6" r="1.72" fill="#ebe6dd" fill-opacity="0.610"/><circle cx="1418.5" cy="663.4" r="0.71" fill="#ebe6dd" fill-opacity="0.602"/><circle cx="611.0" cy="852.2" r="1.08" fill="#ebe6dd" fill-opacity="0.283"/><circle cx="737.1" cy="318.6" r="1.51" fill="#ebe6dd" fill-opacity="0.620"/><circle cx="528.3" cy="605.7" r="1.79" fill="#ebe6dd" fill-opacity="0.604"/><circle cx="93.6" cy="912.9" r="1.36" fill="#ebe6dd" fill-opacity="0.314"/><circle cx="462.6" cy="500.2" r="1.43" fill="#ebe6dd" fill-opacity="0.446"/><circle cx="621.6" cy="967.3" r="0.77" fill="#ebe6dd" fill-opacity="0.180"/><circle cx="918.7" cy="638.7" r="1.00" fill="#ebe6dd" fill-opacity="0.452"/><circle cx="1356.5" cy="825.9" r="0.50" fill="#ebe6dd" fill-opacity="0.228"/><circle cx="1378.4" cy="809.7" r="1.75" fill="#ebe6dd" fill-opacity="0.535"/><circle cx="535.3" cy="1020.4" r="1.15" fill="#ebe6dd" fill-opacity="0.154"/><circle cx="90.6" cy="95.7" r="1.69" fill="#ebe6dd" fill-opacity="0.449"/><circle cx="1540.9" cy="549.6" r="1.40" fill="#ebe6dd" fill-opacity="0.615"/><circle cx="1506.3" cy="728.9" r="0.73" fill="#ebe6dd" fill-opacity="0.560"/><circle cx="989.2" cy="741.9" r="1.73" fill="#ebe6dd" fill-opacity="0.398"/><circle cx="108.5" cy="855.0" r="1.60" fill="#ebe6dd" fill-opacity="0.485"/><circle cx="284.7" cy="328.9" r="1.55" fill="#ebe6dd" fill-opacity="0.386"/><circle cx="1671.4" cy="513.7" r="1.32" fill="#ebe6dd" fill-opacity="0.521"/><circle cx="1004.3" cy="1070.1" r="0.91" fill="#ebe6dd" fill-opacity="0.166"/><circle cx="1557.8" cy="998.5" r="1.61" fill="#ebe6dd" fill-opacity="0.435"/><circle cx="21.7" cy="382.1" r="0.90" fill="#ebe6dd" fill-opacity="0.477"/><circle cx="677.1" cy="872.0" r="1.75" fill="#ebe6dd" fill-opacity="0.373"/><circle cx="256.3" cy="954.5" r="0.68" fill="#ebe6dd" fill-opacity="0.288"/><circle cx="1438.7" cy="954.4" r="1.13" fill="#ebe6dd" fill-opacity="0.633"/><circle cx="1639.8" cy="768.7" r="0.84" fill="#ebe6dd" fill-opacity="0.323"/><circle cx="1270.6" cy="976.2" r="0.57" fill="#ebe6dd" fill-opacity="0.524"/><circle cx="1432.4" cy="1062.9" r="1.24" fill="#ebe6dd" fill-opacity="0.426"/><circle cx="79.7" cy="880.7" r="1.56" fill="#ebe6dd" fill-opacity="0.559"/><circle cx="133.9" cy="696.1" r="0.89" fill="#ebe6dd" fill-opacity="0.462"/><circle cx="1444.1" cy="966.6" r="0.44" fill="#ebe6dd" fill-opacity="0.289"/><circle cx="1247.2" cy="802.8" r="0.40" fill="#ebe6dd" fill-opacity="0.388"/><circle cx="1263.6" cy="69.9" r="1.21" fill="#ebe6dd" fill-opacity="0.554"/></svg>